# xmcd
# 
# Track frame offsets:
#     150
#     10067
#     23358
#     38976
#     55897
#     72071
#     87039
#     100889
#     115362
#     131430
#     144592
#     157341
#     174279
#     190214
#     203750
#     218282
#     232484
#     248388
#     262227
#     275545
#     292552
#     313887
#     327633
# 
# Disc length: 4630
# 
# Revision: 1
# Processed by: cddbd v1.5.2PL0 Copyright (c) Steve Scherf et al.
# Submitted via: fre:ac v1.0.17
# 
DISCID=47121417
DTITLE=John Williamson - A Hell of a Career Disc 2
DYEAR=2013
DGENRE=Country
TTITLE0=Island of Oceans
TTITLE1=Rip Rip Woodchip
TTITLE2=A Flag of Our Own
TTITLE3=A Bushman Can't Survive [Orchestra Version][Version]
TTITLE4=Wintergreen
TTITLE5=Papa Whisky November
TTITLE6=Prettiest Girl in the Kimberley [Orchestra Version][Version]
TTITLE7=Sir Don
TTITLE8=Three Sons
TTITLE9=A Thousand Feet
TTITLE10=Baggy Green
TTITLE11=Sing You the Outback
TTITLE12=Salisbury Street
TTITLE13=Glory to Australia
TTITLE14=Chandelier of Stars
TTITLE15=Flower on the Water
TTITLE16=The Joy Is in the Journey
TTITLE17=Hillbilly Road
TTITLE18=Cydi
TTITLE19=The Big Red
TTITLE20=Hang My Hat in Queensland [Orchestra Version][Version]
TTITLE21=Prairie Hotel Parachilna [Orchestra Version][Version]
TTITLE22=Rescue Me [Orchestra Version][Version]
EXTD=
EXTT0=
EXTT1=
EXTT2=
EXTT3=
EXTT4=
EXTT5=
EXTT6=
EXTT7=
EXTT8=
EXTT9=
EXTT10=
EXTT11=
EXTT12=
EXTT13=
EXTT14=
EXTT15=
EXTT16=
EXTT17=
EXTT18=
EXTT19=
EXTT20=
EXTT21=
EXTT22=
PLAYORDER=
